<svg width="16" height="16" viewBox="0 0 16 16" fill="none" xmlns="http://www.w3.org/2000/svg">
<path d="M12.6666 2.66663H3.33325C2.78097 2.66663 2.33325 3.11434 2.33325 3.66663V6.33329C2.33325 6.88558 2.78097 7.33329 3.33325 7.33329H12.6666C13.2189 7.33329 13.6666 6.88558 13.6666 6.33329V3.66663C13.6666 3.11434 13.2189 2.66663 12.6666 2.66663Z" stroke="#A3A5AC" stroke-width="1.41667" stroke-linecap="round" stroke-linejoin="round"/>
<path d="M12.6666 8.66663H3.33325C2.78097 8.66663 2.33325 9.11434 2.33325 9.66663V12.3333C2.33325 12.8856 2.78097 13.3333 3.33325 13.3333H12.6666C13.2189 13.3333 13.6666 12.8856 13.6666 12.3333V9.66663C13.6666 9.11434 13.2189 8.66663 12.6666 8.66663Z" stroke="#A3A5AC" stroke-width="1.41667" stroke-linecap="round" stroke-linejoin="round"/>
<path d="M4.66675 5H5.00008M4.66675 11H5.00008" stroke="#A3A5AC" stroke-width="1.41667" stroke-linecap="round" stroke-linejoin="round"/>
</svg>
