<svg width="16" height="16" viewBox="0 0 16 16" fill="none" xmlns="http://www.w3.org/2000/svg">
<path d="M9.80035 4.19996C9.6782 4.32457 9.60978 4.49212 9.60978 4.66662C9.60978 4.84112 9.6782 5.00867 9.80035 5.13329L10.867 6.19996C10.9916 6.32211 11.1592 6.39053 11.3337 6.39053C11.5082 6.39053 11.6757 6.32211 11.8003 6.19996L14.067 3.93329C14.3889 4.67021 14.4812 5.48704 14.3318 6.2772C14.1825 7.06737 13.7985 7.79417 13.2298 8.36279C12.6612 8.93141 11.9344 9.31544 11.1443 9.46478C10.3541 9.61412 9.53727 9.52183 8.80035 9.19996L4.20035 13.8C4.06902 13.9313 3.91312 14.0354 3.74154 14.1065C3.56996 14.1776 3.38606 14.2142 3.20035 14.2142C2.82527 14.2142 2.46556 14.0652 2.20035 13.8C1.93513 13.5347 1.78613 13.175 1.78613 12.8C1.78613 12.4249 1.93513 12.0652 2.20035 11.8L6.80035 7.19996C6.47847 6.46303 6.38618 5.6462 6.53552 4.85604C6.68486 4.06588 7.06889 3.33907 7.63751 2.77045C8.20613 2.20183 8.93294 1.8178 9.7231 1.66846C10.5133 1.51912 11.3301 1.61141 12.067 1.93329L9.80035 4.19996Z" stroke="#2F5F98" stroke-width="1.41667" stroke-linecap="round" stroke-linejoin="round"/>
</svg>
